<svg preserveAspectRatio="none" width="100%" height="100%" overflow="visible" style="display: block;" viewBox="0 0 23 23" fill="none" xmlns="http://www.w3.org/2000/svg">
<g id="mdi:cart-outline">
<path id="Vector" d="M16.2917 17.25C16.8 17.25 17.2875 17.4519 17.647 17.8114C18.0064 18.1708 18.2083 18.6583 18.2083 19.1667C18.2083 19.675 18.0064 20.1625 17.647 20.522C17.2875 20.8814 16.8 21.0833 16.2917 21.0833C15.7833 21.0833 15.2958 20.8814 14.9364 20.522C14.5769 20.1625 14.375 19.675 14.375 19.1667C14.375 18.1029 15.2279 17.25 16.2917 17.25ZM0.958331 1.91667H4.09208L4.99291 3.83333H19.1667C19.4208 3.83333 19.6646 3.9343 19.8443 4.11402C20.024 4.29375 20.125 4.5375 20.125 4.79167C20.125 4.95458 20.0771 5.1175 20.01 5.27083L16.5792 11.4713C16.2533 12.0558 15.6208 12.4583 14.9021 12.4583H7.7625L6.9 14.0204L6.87125 14.1354C6.87125 14.199 6.89649 14.2599 6.94142 14.3048C6.98635 14.3498 7.04729 14.375 7.11083 14.375H18.2083V16.2917H6.70833C6.2 16.2917 5.71249 16.0897 5.35304 15.7303C4.9936 15.3708 4.79166 14.8833 4.79166 14.375C4.79166 14.0396 4.87791 13.7233 5.02166 13.455L6.325 11.1071L2.875 3.83333H0.958331V1.91667ZM6.70833 17.25C7.21666 17.25 7.70417 17.4519 8.06362 17.8114C8.42306 18.1708 8.625 18.6583 8.625 19.1667C8.625 19.675 8.42306 20.1625 8.06362 20.522C7.70417 20.8814 7.21666 21.0833 6.70833 21.0833C6.2 21.0833 5.71249 20.8814 5.35304 20.522C4.9936 20.1625 4.79166 19.675 4.79166 19.1667C4.79166 18.1029 5.64458 17.25 6.70833 17.25ZM15.3333 10.5417L17.9975 5.75H5.88416L8.14583 10.5417H15.3333Z" fill="var(--fill-0, white)"/>
</g>
</svg>
