<svg preserveAspectRatio="none" width="100%" height="100%" overflow="visible" style="display: block;" viewBox="0 0 23 23" fill="none" xmlns="http://www.w3.org/2000/svg">
<g id="material-symbols:search-rounded">
<path id="Vector" d="M9.10415 15.3333C7.36318 15.3333 5.8899 14.7302 4.68432 13.524C3.47873 12.3178 2.87562 10.8445 2.87498 9.10417C2.87434 7.36383 3.47745 5.89056 4.68432 4.68433C5.89118 3.47811 7.36445 2.875 9.10415 2.875C10.8438 2.875 12.3174 3.47811 13.5249 4.68433C14.7324 5.89056 15.3352 7.36383 15.3333 9.10417C15.3333 9.80695 15.2215 10.4698 14.9979 11.0927C14.7743 11.7156 14.4708 12.2667 14.0875 12.7458L19.4541 18.1125C19.6298 18.2882 19.7177 18.5118 19.7177 18.7833C19.7177 19.0549 19.6298 19.2785 19.4541 19.4542C19.2785 19.6299 19.0548 19.7177 18.7833 19.7177C18.5118 19.7177 18.2882 19.6299 18.1125 19.4542L12.7458 14.0875C12.2666 14.4708 11.7156 14.7743 11.0927 14.9979C10.4698 15.2215 9.80693 15.3333 9.10415 15.3333ZM9.10415 13.4167C10.3021 13.4167 11.3205 12.9976 12.1593 12.1593C12.9982 11.3211 13.4173 10.3027 13.4166 9.10417C13.416 7.90561 12.9969 6.88754 12.1593 6.04996C11.3217 5.21238 10.3033 4.79295 9.10415 4.79167C7.90495 4.79039 6.88688 5.20982 6.04994 6.04996C5.213 6.8901 4.79357 7.90817 4.79165 9.10417C4.78973 10.3002 5.20916 11.3186 6.04994 12.1593C6.89072 13.0001 7.90879 13.4192 9.10415 13.4167Z" fill="var(--fill-0, #936939)"/>
</g>
</svg>
