<svg preserveAspectRatio="none" width="100%" height="100%" overflow="visible" style="display: block;" viewBox="0 0 23 23" fill="none" xmlns="http://www.w3.org/2000/svg">
<g id="proicons:person">
<path id="Vector" d="M18.2083 19.8854C18.4625 19.8854 18.7063 19.7844 18.886 19.6047C19.0657 19.425 19.1667 19.1812 19.1667 18.9271V17.733C19.1705 15.0439 15.3582 12.9375 11.5 12.9375C7.64175 12.9375 3.83333 15.0439 3.83333 17.733V18.9271C3.83333 19.1812 3.9343 19.425 4.11402 19.6047C4.29374 19.7844 4.5375 19.8854 4.79167 19.8854H18.2083ZM14.9538 6.56842C14.9538 7.02198 14.8645 7.4711 14.6909 7.89014C14.5174 8.30918 14.2629 8.68993 13.9422 9.01064C13.6215 9.33136 13.2408 9.58577 12.8217 9.75934C12.4027 9.93291 11.9536 10.0222 11.5 10.0222C11.0464 10.0222 10.5973 9.93291 10.1783 9.75934C9.75924 9.58577 9.37849 9.33136 9.05777 9.01064C8.73705 8.68993 8.48264 8.30918 8.30907 7.89014C8.1355 7.4711 8.04617 7.02198 8.04617 6.56842C8.04617 5.6524 8.41005 4.77391 9.05777 4.12619C9.70549 3.47847 10.584 3.11458 11.5 3.11458C12.416 3.11458 13.2945 3.47847 13.9422 4.12619C14.5899 4.77391 14.9538 5.6524 14.9538 6.56842Z" stroke="var(--stroke-0, #936939)" stroke-width="1.4375" stroke-linecap="round" stroke-linejoin="round"/>
</g>
</svg>
