<svg preserveAspectRatio="none" width="100%" height="100%" overflow="visible" style="display: block;" viewBox="0 0 81.1239 115.434" fill="none" xmlns="http://www.w3.org/2000/svg">
<g id="Group 1000004086">
<g id="Vector">
<path d="M37.2757 0.116804C34.1248 0.380086 32.1034 0.736791 29.2498 1.56061C26.5321 2.34196 24.8504 2.98743 22.5489 4.1085C18.107 6.2912 14.455 8.92402 11.0239 12.4061C10.0132 13.4338 9.81788 13.6546 8.98557 14.6313C8.41654 15.3022 6.75192 17.5104 6.48863 17.9436C6.37823 18.1304 6.25083 18.2918 6.21686 18.3088C6.18289 18.3257 6.14891 18.3937 6.14891 18.4616C6.14891 18.5296 6.11494 18.5805 6.06399 18.5805C6.02152 18.5805 5.97906 18.623 5.97906 18.674C5.97906 18.7164 5.83467 18.9797 5.65632 19.243C5.47797 19.5063 5.20619 19.9564 5.05332 20.2367C4.90045 20.5084 4.7136 20.8397 4.62867 20.9586C4.54374 21.0775 4.12759 21.8928 3.69444 22.7846C3.2613 23.6678 2.87063 24.4662 2.82816 24.5511C2.53091 25.1031 1.40983 28.2795 1.10409 29.4091C0.501086 31.6852 0.0764368 33.9443 0.0254789 35.1843L0 35.6939L0.569029 35.7109C1.2145 35.7279 1.17203 35.7788 1.25696 34.8191C1.34189 33.8339 1.96188 30.9378 2.38653 29.5365C2.7772 28.237 3.37171 26.5385 3.67746 25.842C3.77937 25.6042 3.91526 25.2985 3.98321 25.1626C4.39087 24.2284 4.90894 23.1073 4.9599 23.0393C4.99387 22.9884 5.27414 22.4618 5.58838 21.8673C6.42069 20.2961 7.3804 18.8098 8.9431 16.7206C9.37625 16.1346 9.75843 15.6335 9.7924 15.608C9.82637 15.5825 10.2935 15.0644 10.837 14.4614C12.1365 13.0091 13.5633 11.6503 14.7693 10.7245C14.9561 10.5802 15.2364 10.3508 15.4063 10.2065C16.3235 9.39963 19.1262 7.43775 20.3322 6.74982C21.1135 6.29969 23.8398 4.90684 23.9332 4.90684C23.9587 4.90684 24.2559 4.77945 24.5957 4.61808C24.9354 4.46521 25.445 4.25288 25.7252 4.14247C26.0055 4.04056 26.3537 3.90467 26.4896 3.84522C27.1181 3.58194 29.2498 2.92798 30.6511 2.57127C36.0187 1.2124 41.9553 0.983087 47.5522 1.9343C48.8346 2.14662 48.8941 2.16361 51.7987 2.91099C55.06 3.7433 59.4933 5.81559 62.7716 8.02377C63.6718 8.62677 64.4277 9.16182 64.4957 9.23826C64.5211 9.26374 64.691 9.39963 64.8863 9.53551C65.2515 9.80729 65.6422 10.13 66.9926 11.2851C68.4704 12.559 69.9906 14.1132 71.2476 15.642C71.4344 15.8713 71.6298 16.1006 71.6807 16.1515C72.1733 16.6696 73.6681 18.7674 74.4155 19.9819C74.6702 20.398 74.993 20.9161 75.1289 21.1284C75.5111 21.706 76.9888 24.7634 77.4729 25.9694C78.1014 27.5491 78.6704 29.2902 79.0526 30.8529C79.3838 32.1778 79.4943 32.8148 79.9189 35.558L79.9614 35.8383L80.4455 35.7873C80.7088 35.7618 80.9805 35.7448 81.04 35.7363C81.1334 35.7363 81.1419 35.609 81.0994 35.1588C80.955 33.6216 80.6493 31.889 80.1992 30.0885C79.9868 29.2562 79.3669 27.1754 79.2734 26.9886C79.231 26.9206 79.0441 26.4365 78.8488 25.927C78.2458 24.3303 77.0823 21.8588 76.6066 21.1624C76.4877 20.984 76.3858 20.8057 76.3858 20.7632C76.3858 20.7208 76.216 20.4235 76.0036 20.1008C75.7913 19.778 75.6215 19.4893 75.6215 19.4638C75.6215 19.4383 75.2563 18.8778 74.8146 18.2153C73.3623 16.0581 72.8697 15.4296 71.1881 13.6037C69.9566 12.2618 68.4534 10.7925 67.2814 9.78181C64.2324 7.15748 59.901 4.49069 56.3849 3.08085C53.2934 1.84088 50.7201 1.10199 47.8494 0.626382C44.3333 0.040367 40.4266 -0.146478 37.2757 0.116804ZM32.2648 1.085C32.2393 1.12747 32.1629 1.16993 32.1119 1.16993C32.0525 1.16993 32.061 1.13596 32.1374 1.085C32.2988 0.983087 32.3328 0.983087 32.2648 1.085ZM79.163 30.4028C79.1376 30.4707 79.1121 30.4452 79.1121 30.3518C79.1036 30.2584 79.1291 30.2074 79.1545 30.2414C79.18 30.2669 79.1885 30.3433 79.163 30.4028ZM0.857791 31.6767C0.832312 31.7446 0.806833 31.7192 0.806833 31.6257C0.79834 31.5323 0.823819 31.4814 0.849298 31.5153C0.874777 31.5408 0.88327 31.6173 0.857791 31.6767Z" fill="var(--fill-0, #936939)"/>
<path d="M32.2648 1.085C32.2393 1.12747 32.1629 1.16993 32.1119 1.16993C32.0525 1.16993 32.061 1.13596 32.1374 1.085C32.2988 0.983087 32.3328 0.983087 32.2648 1.085Z" fill="var(--fill-0, #936939)"/>
</g>
<path id="Vector_2" d="M38.8894 3.03838C34.7957 3.19125 31.6618 3.77727 27.0417 5.26354C22.9565 6.57145 17.2408 10.2914 13.3595 14.1642C12.1195 15.3957 10.7266 17.0093 9.99625 18.054C9.86885 18.2408 9.47817 18.7759 9.14695 19.243C8.80723 19.7186 8.52696 20.1178 8.52696 20.1517C8.52696 20.1772 8.45902 20.2706 8.37409 20.3641C8.15327 20.6019 6.70946 23.1497 6.23386 24.1434C5.50346 25.6722 4.70512 27.7105 4.17856 29.3666C3.61802 31.1756 2.95557 34.318 2.72626 36.3308C2.64982 37.0018 2.62434 42.0381 2.62434 56.9263C2.62434 75.3306 2.63283 76.7319 2.77722 78.1163C3.032 80.6132 3.42268 82.7959 3.89829 84.486C3.97473 84.7408 4.09363 85.157 4.16157 85.4118C4.45883 86.5159 5.22319 88.6136 5.72428 89.7177C5.8177 89.9046 5.96208 90.2528 6.0555 90.4821C6.47166 91.5352 8.05985 94.3634 8.93462 95.6118C9.33379 96.1894 10.4209 97.6501 10.6587 97.9474C12.8839 100.674 14.472 102.219 17.572 104.682C17.6229 104.716 17.9796 104.98 18.3788 105.26C25.1562 110.05 33.301 112.487 41.709 112.224C44.6476 112.139 47.5777 111.672 50.5672 110.814C50.9154 110.712 51.3401 110.602 51.5014 110.559C53.1491 110.126 56.5717 108.691 58.678 107.536C59.6037 107.035 59.5613 107.052 60.5464 106.449C64.5381 103.994 68.2326 100.572 71.0438 96.7159C72.1648 95.1872 72.3857 94.8729 72.547 94.5842C72.8952 93.9557 72.9462 93.8708 72.9972 93.8283C73.2095 93.633 74.9251 90.2782 75.3157 89.2846C75.4516 88.9533 75.6215 88.5372 75.7064 88.3503C75.8933 87.9342 76.751 85.3948 76.9464 84.6984C77.7702 81.6664 78.1609 79.2119 78.3392 75.9931C78.4157 74.5832 78.4327 69.462 78.4072 56.3318C78.3647 37.6473 78.3732 37.8681 77.991 35.0569C77.8297 33.8254 77.2861 31.1926 77.0738 30.5556C77.0313 30.4367 76.8954 29.9781 76.768 29.5365C76.5472 28.7636 76.233 27.8294 76.0037 27.2858C75.9442 27.1414 75.7913 26.7762 75.6724 26.4535C74.4664 23.3196 72.4536 19.9479 69.9227 16.831C67.5532 13.9094 64.2749 11.0388 60.5804 8.66922C58.4572 7.30185 55.1279 5.72216 52.563 4.86437C50.4483 4.15945 47.4842 3.46303 45.8621 3.29317C44.8429 3.19125 41.1825 2.95345 40.8427 2.97043C40.7069 2.97893 39.8236 3.0044 38.8894 3.03838ZM42.8216 3.88767C46.8897 4.17644 50.5247 4.99176 54.4315 6.49502C55.6035 6.94515 58.8139 8.55881 59.9095 9.23825C61.0136 9.93467 61.8034 10.4443 61.8629 10.5122C61.8883 10.5377 62.1176 10.7075 62.3724 10.8944C62.6272 11.0812 62.8565 11.2511 62.882 11.2766C62.9075 11.302 63.1538 11.4889 63.4341 11.6927C64.725 12.6439 67.1285 14.8436 68.1222 15.9647C69.2772 17.2726 69.7189 17.8246 71.1881 19.812C71.4769 20.1942 72.6065 22.0117 73.0481 22.7845C73.9399 24.3727 75.2223 27.2943 75.7064 28.857C75.8593 29.3496 76.0037 29.8082 76.0291 29.8762C76.25 30.4792 76.6916 32.3731 76.8954 33.6131C76.9889 34.1991 77.1078 34.904 77.1502 35.1843C77.5409 37.5199 77.5919 40.2716 77.5579 59.6016C77.5239 78.7193 77.5409 77.8275 77.0568 80.7067C76.7595 82.4817 75.7828 86.1167 75.3667 86.9915C75.3242 87.0849 75.2223 87.3482 75.1459 87.586C74.7807 88.7155 73.3454 91.7475 72.5385 93.1064C70.721 96.1554 68.895 98.4655 66.2792 101.005C65.328 101.931 65.1836 102.058 64.2494 102.822C63.8162 103.179 63.2642 103.629 63.0179 103.833C62.2705 104.462 59.1791 106.466 58.2533 106.924C58.1175 106.992 57.5824 107.264 57.0643 107.519C56.5547 107.782 55.8838 108.097 55.5781 108.224C55.2723 108.343 54.9071 108.496 54.7712 108.564C52.7669 109.472 48.0957 110.746 45.5563 111.078C43.0679 111.392 38.8978 111.434 36.3839 111.162C31.1523 110.602 26.5151 109.133 22.0733 106.644C21.3683 106.245 19.4235 105.005 18.5062 104.36C17.4531 103.621 15.2789 101.752 14.0134 100.487C10.8625 97.3614 8.42505 93.7773 6.50563 89.4884C5.84318 88.0021 4.89197 85.2504 4.58622 83.9765C4.51828 83.6707 4.38239 83.1017 4.28897 82.7025C3.89829 81.0209 3.6435 79.2883 3.5161 77.3944C3.44816 76.4517 3.43117 70.0395 3.45665 56.4167C3.49063 35.5495 3.46515 36.8319 3.85582 34.335C4.25499 31.7616 5.28264 28.254 6.33577 25.876C7.21055 23.8801 8.71381 21.2049 9.80091 19.6846C10.0812 19.2854 10.3869 18.8438 10.4803 18.7079C11.1598 17.6463 14.3277 14.2321 15.7205 13.0601C16.0263 12.8053 16.3575 12.525 16.4594 12.4316C16.5528 12.3467 16.8671 12.1004 17.1473 11.8881C17.572 11.5568 17.9881 11.2341 18.6846 10.6905C18.727 10.6481 18.8544 10.5801 18.9478 10.5207C19.0498 10.4697 19.1772 10.3763 19.2451 10.3169C19.364 10.198 20.3662 9.56098 21.5892 8.83908C23.7464 7.55664 27.6616 5.89202 29.6745 5.41641C29.9293 5.35696 30.3709 5.23806 30.6427 5.14463C31.3476 4.93231 33.887 4.42273 35.042 4.27835C35.5686 4.21041 36.7661 4.09151 37.7003 4.01507C38.6346 3.93863 39.4584 3.87069 39.5263 3.8537C39.8151 3.78576 41.6581 3.81124 42.8216 3.88767ZM75.0949 26.4365C75.0694 26.462 75.0185 26.4195 74.993 26.3346C74.942 26.2157 74.9505 26.2072 75.0355 26.2837C75.0949 26.3431 75.1204 26.4111 75.0949 26.4365Z" fill="var(--fill-0, #936939)"/>
<path id="Vector_3" d="M29.2498 42.0127C29.063 42.0636 29.0375 42.1231 29.012 42.5393L28.9866 43.0149L29.3093 43.1507C29.4876 43.2272 29.8189 43.3291 30.0397 43.3801C30.5238 43.482 31.0164 43.7198 31.2202 43.9491C31.6449 44.4077 31.6279 44.102 31.6279 53.5886V62.4468L31.3731 62.761C31.0928 63.0923 30.3794 63.4235 29.9208 63.4235C29.615 63.4235 29.2074 63.6188 29.1309 63.8057C29.0375 64.052 29.08 64.4172 29.2074 64.5276C29.2923 64.604 30.4728 64.6295 33.921 64.6295C39.0677 64.638 38.7705 64.672 38.779 64.0265C38.7874 63.5764 38.711 63.4999 38.1929 63.449C37.7343 63.398 37.0804 63.2027 36.9105 63.0668C36.851 63.0073 36.7237 62.829 36.6387 62.6591C36.4943 62.3788 36.4774 62.0901 36.4604 59.5931C36.4519 58.0814 36.4774 56.765 36.5113 56.6716C36.9445 55.4825 37.9806 54.336 38.6176 54.336C38.7874 54.336 39.1866 54.7267 39.1866 54.888C39.1866 54.905 39.4414 55.2957 39.7641 55.7373C40.0784 56.179 40.5455 56.8499 40.8003 57.2321C41.0551 57.6058 41.4882 58.2173 41.76 58.5995C42.0318 58.9732 42.4734 59.5931 42.7367 59.9753C44.8175 62.9988 44.8005 62.9479 44.1805 63.2366C43.9767 63.3216 43.62 63.449 43.3737 63.5084C42.8301 63.6358 42.7367 63.7377 42.7707 64.2048C42.7961 64.57 42.7961 64.57 43.1783 64.6295C43.3906 64.655 45.6922 64.6889 48.2996 64.6889C52.9198 64.6974 53.0302 64.6974 53.2 64.5276C53.5992 64.1284 53.3359 63.6783 52.5461 63.4235C52.2318 63.3216 51.8581 63.1772 51.7138 63.1092C51.3316 62.9054 50.4738 62.209 50.185 61.8523C50.0491 61.6824 49.8878 61.4956 49.8368 61.4361C49.7519 61.3427 46.8728 57.4954 46.2018 56.5612C45.8706 56.111 45.2421 55.2702 45.1062 55.1004C45.0468 55.0324 44.3249 54.0642 43.4926 52.9601C42.4819 51.6013 41.9893 50.8794 41.9893 50.735C41.9893 50.5057 42.1846 50.2679 43.7219 48.6117C45.7857 46.3866 47.2804 44.9513 48.0448 44.4502C48.8516 43.9236 50.6691 43.2102 51.1957 43.2102C51.2806 43.2102 51.459 43.1338 51.5949 43.0318C51.8072 42.8875 51.8412 42.8025 51.8412 42.4798C51.8412 42.1486 51.8157 42.0891 51.6203 42.0212C51.4929 41.9702 49.7943 41.9363 47.3823 41.9363C42.898 41.9363 43.0934 41.9108 43.0934 42.5223C43.0934 42.9809 43.2293 43.1083 43.9597 43.2866C44.7155 43.482 45.0298 43.6603 45.0977 43.9406C45.1657 44.2124 45.0892 44.3907 44.7665 44.7389C44.6221 44.9003 44.206 45.3589 43.8578 45.7581C43.5095 46.1573 43.0849 46.6159 42.9235 46.7942C42.7622 46.9641 42.5668 47.1764 42.4989 47.2613C42.363 47.4142 39.0337 51.0747 38.2439 51.941C38.0146 52.1873 37.8277 52.4081 37.8277 52.4421C37.8277 52.4675 37.7258 52.5949 37.5984 52.7138C37.4625 52.8412 37.2247 53.1045 37.0634 53.2999C36.7576 53.682 36.6048 53.7415 36.5198 53.5207C36.4943 53.4442 36.4689 51.4654 36.4689 49.1213C36.4689 44.3737 36.4689 44.3567 37.0294 43.7877C37.3182 43.4905 37.9297 43.2102 38.2949 43.2102C38.5751 43.2102 38.762 42.9469 38.762 42.5477C38.762 41.9108 38.9658 41.9363 33.921 41.9447C31.4665 41.9532 29.3687 41.9787 29.2498 42.0127Z" fill="var(--fill-0, #936939)"/>
<path id="Vector_4" d="M54.6014 70.048C53.0642 70.0735 51.8412 70.0989 51.8836 70.1159C51.9346 70.1244 52.045 70.2943 52.1384 70.4896C52.2998 70.8293 52.3083 71.0162 52.3083 74.218C52.3083 77.5643 52.3083 77.5982 52.1214 77.8445C51.9686 78.0484 51.9601 78.1078 52.0535 78.1503C52.1724 78.1927 57.7013 78.2267 57.7013 78.1842C57.7013 78.1673 57.7523 77.8445 57.8202 77.4538C57.9476 76.6725 57.8712 76.4941 57.5909 76.8848C57.2937 77.284 57.0134 77.3434 55.3573 77.3519L53.837 77.3689V75.8911V74.4219L54.6439 74.3964C55.6715 74.3624 55.9433 74.4134 56.283 74.7106C56.7077 75.0758 56.7671 74.9909 56.7671 74.0397C56.7671 73.581 56.7331 73.1819 56.6907 73.1479C56.6397 73.1224 56.4783 73.2159 56.3085 73.3602C56.0282 73.6065 55.9857 73.6235 55.0345 73.6575C54.491 73.6745 53.9899 73.6745 53.922 73.649C53.8115 73.6065 53.7946 73.3687 53.7946 72.2052V70.8123H55.2384C56.852 70.8123 57.1323 70.8718 57.455 71.3134C57.7608 71.7296 57.8117 71.6447 57.7438 70.8718C57.6928 70.2348 57.5909 69.9291 57.455 69.98C57.4296 69.997 56.1471 70.0225 54.6014 70.048ZM52.5801 77.7936C52.5546 77.8615 52.5291 77.836 52.5291 77.7426C52.5206 77.6492 52.5461 77.5982 52.5716 77.6322C52.5971 77.6577 52.6055 77.7341 52.5801 77.7936Z" fill="var(--fill-0, #936939)"/>
<path id="Vector_5" d="M14.9137 70.3028C15.177 70.668 15.2279 71.2795 15.2279 74.337C15.2364 77.0717 15.16 77.7766 14.8542 77.9974C14.7863 78.0484 14.7268 78.1163 14.7268 78.1503C14.7268 78.2182 16.9265 78.2098 17.0369 78.1418C17.0709 78.1248 17.0199 77.9889 16.918 77.8531C16.7482 77.6237 16.7227 77.4709 16.6972 76.4177C16.6548 75.1098 16.6208 75.2287 17.3257 74.4389C17.6145 74.1246 17.6484 74.1076 17.7334 74.2435C17.7843 74.3285 17.9287 74.5578 18.0476 74.7531C18.1665 74.94 18.5487 75.5769 18.8884 76.1629C19.2281 76.749 19.6443 77.4454 19.8141 77.7087L20.1199 78.2013L21.1221 78.1843C21.6656 78.1758 22.1157 78.1418 22.1157 78.0993C22.1157 78.0654 22.0648 78.0314 21.9968 78.0314C21.8609 78.0314 21.2664 77.3435 20.9012 76.7829C20.1708 75.6364 18.778 73.2159 18.7865 73.097C18.795 72.9611 19.0752 72.6214 20.0095 71.6277C20.2728 71.3389 20.5955 70.9822 20.7314 70.8294C20.8588 70.6765 21.139 70.4387 21.3514 70.3028L21.7336 70.048H20.604C19.5593 70.048 19.4829 70.0565 19.5593 70.1924C19.7207 70.4896 19.0668 71.4918 17.8268 72.8422C16.8076 73.9548 16.7737 73.9887 16.7227 73.8444C16.6887 73.7764 16.6802 73.0036 16.6972 72.1458C16.7227 70.6595 16.7312 70.5576 16.918 70.3113L17.1134 70.048H15.9159H14.7184L14.9137 70.3028Z" fill="var(--fill-0, #936939)"/>
<path id="Vector_6" d="M27.22 70.4896C27.1096 70.7359 26.7869 71.5343 26.4896 72.2562C26.1924 72.9781 25.7932 73.9548 25.5978 74.4219C25.411 74.889 25.0968 75.6449 24.9184 76.095C24.4258 77.3095 23.9927 78.0314 23.7549 78.0314C23.6954 78.0314 23.6445 78.0654 23.6445 78.1163C23.6445 78.1673 24.0266 78.2013 24.6296 78.2013C25.5384 78.2013 25.6148 78.1928 25.5554 78.0484C25.394 77.6832 25.4195 77.318 25.6403 76.6895C25.7762 76.3328 25.9121 75.9846 25.963 75.9251C26.0225 75.8487 26.4641 75.8232 27.6531 75.8232H29.2583L29.4791 76.3073C29.8528 77.1566 29.9632 77.6068 29.8358 77.8361C29.7764 77.938 29.6999 78.0314 29.6575 78.0314C29.615 78.0314 29.6065 78.0654 29.632 78.1163C29.666 78.1673 30.1671 78.2013 30.872 78.2013C32.1629 78.2013 32.2563 78.1588 31.8317 77.7681C31.6109 77.5728 30.5238 75.4071 30.5238 75.1863C30.5238 75.1523 30.4219 74.889 30.303 74.6002C30.184 74.32 30.0482 74.0057 30.0057 73.9123C29.9717 73.8189 29.7254 73.2244 29.4621 72.5959C29.1989 71.9674 28.8676 71.1351 28.7148 70.7529L28.443 70.048H27.9249H27.4153L27.22 70.4896ZM27.9674 72.4685C28.8082 74.6342 28.9356 74.9824 28.9016 75.0164C28.8167 75.1013 26.4132 75.0758 26.3792 74.9824C26.3622 74.9315 26.5915 74.269 26.8973 73.5131C27.1945 72.7488 27.4663 72.0608 27.4918 71.9759C27.5937 71.7041 27.7381 71.857 27.9674 72.4685Z" fill="var(--fill-0, #936939)"/>
<path id="Vector_7" d="M34.2947 70.2349C34.6259 70.702 34.6344 70.7954 34.6684 73.8529C34.7023 77.0038 34.6514 77.6322 34.3456 77.904C34.2522 77.9889 34.1928 78.0824 34.2182 78.1078C34.2777 78.2098 36.5538 78.2267 36.5538 78.1248C36.5538 78.0739 36.5198 78.0314 36.4859 78.0314C36.316 78.0314 36.1886 77.4963 36.1207 76.4772C36.0272 75.2457 36.0442 75.2117 36.6727 74.5238L37.0464 74.1161L37.3437 74.5663C37.505 74.8126 37.7428 75.2032 37.8702 75.441C37.9976 75.6704 38.2014 76.0101 38.3288 76.2054C38.4562 76.3923 38.779 76.9188 39.0507 77.3774L39.5433 78.2013L40.5115 78.1843C41.0466 78.1673 41.4797 78.1503 41.4797 78.1418C41.4797 78.1333 41.2929 77.9465 41.0636 77.7341C40.8173 77.5048 40.4181 76.9613 40.1124 76.4347C39.8151 75.9336 39.2546 74.9909 38.8724 74.337C38.4817 73.683 38.1675 73.114 38.1675 73.063C38.1675 73.0205 38.3713 72.7658 38.6176 72.511C38.8639 72.2562 39.4244 71.6532 39.8576 71.1691C40.2992 70.6935 40.6984 70.3028 40.7493 70.3028C40.8003 70.3028 40.9192 70.2433 41.0041 70.1754C41.157 70.065 41.0551 70.048 40.0529 70.048H38.9318L39.0168 70.2688C39.0932 70.4557 39.0592 70.5576 38.8129 70.9228C38.4393 71.4748 36.282 73.9463 36.1716 73.9463C36.1122 73.9548 36.0867 73.5896 36.1037 72.8677C36.1631 70.6085 36.1631 70.617 36.367 70.3198L36.5623 70.048H35.3563H34.1588L34.2947 70.2349ZM34.9147 77.7936C34.8892 77.8615 34.8637 77.8361 34.8637 77.7426C34.8552 77.6492 34.8807 77.5983 34.9062 77.6322C34.9317 77.6577 34.9401 77.7341 34.9147 77.7936Z" fill="var(--fill-0, #936939)"/>
<path id="Vector_8" d="M43.603 70.0904C43.603 70.1074 43.6794 70.2518 43.7728 70.4047C43.9342 70.6765 43.9427 70.8378 43.9427 74.0821C43.9427 77.318 43.9342 77.5048 43.7728 77.819C43.6794 78.0059 43.603 78.1673 43.603 78.1842C43.603 78.1927 44.9024 78.2012 46.4821 78.1927L49.3612 78.1842L49.4121 77.87C49.616 76.681 49.5565 76.3073 49.2423 76.8339C48.979 77.2755 48.6987 77.3434 47.0256 77.3519L45.5139 77.3689V75.8911V74.4219L46.3037 74.3964C47.204 74.3709 47.6541 74.4643 48.0023 74.7616C48.1467 74.8805 48.2826 74.9739 48.3081 74.9739C48.3335 74.9739 48.359 74.5493 48.359 74.0397C48.359 73.1139 48.3166 72.9781 48.0957 73.2413C47.8834 73.4961 47.5437 73.598 46.7878 73.615C46.3717 73.632 45.8961 73.632 45.7517 73.632L45.4714 73.615V72.2137V70.8123H46.9152C48.5289 70.8123 48.8091 70.8718 49.1319 71.3134C49.2338 71.4578 49.3612 71.5767 49.4037 71.5767C49.4801 71.5767 49.4291 70.8463 49.3187 70.2773L49.2763 70.048H46.4396C44.8769 70.048 43.603 70.065 43.603 70.0904Z" fill="var(--fill-0, #936939)"/>
<path id="Vector_9" d="M60.3001 70.5321C60.2662 70.8039 60.2237 71.1691 60.1897 71.3389C60.1218 71.7721 60.3171 71.7721 60.5464 71.3389C60.7927 70.8803 61.0475 70.8209 62.865 70.8209C63.7143 70.8124 64.4107 70.8294 64.4107 70.8548C64.4107 70.8803 64.2918 71.1011 64.156 71.3474C64.0116 71.6022 63.9266 71.8315 63.9606 71.857C63.9861 71.891 63.9606 71.9165 63.8927 71.9165C63.7908 71.9165 62.2365 74.2775 61.4382 75.6449C61.3618 75.7638 61.0475 76.2564 60.7333 76.7405C60.3086 77.3944 60.1643 77.6917 60.1643 77.9125V78.2097L63.1878 78.2013C65.6847 78.1843 66.2028 78.1673 66.1603 78.0739C66.1348 78.0059 66.1518 77.9465 66.1943 77.9295C66.2962 77.8955 66.4491 76.9018 66.3896 76.6725C66.3471 76.5027 66.3302 76.5112 66.0924 76.7999C65.6507 77.3265 65.5403 77.352 63.6888 77.352C62.7801 77.352 62.0327 77.335 62.0327 77.3095C62.0327 77.2585 62.4743 76.5621 63.1283 75.5684C63.3916 75.1693 63.6209 74.8041 63.6464 74.7616C63.6719 74.7106 64.0201 74.1756 64.4192 73.5726C65.9819 71.203 66.2792 70.7104 66.3556 70.3877L66.4321 70.048H63.3916H60.3596L60.3001 70.5321Z" fill="var(--fill-0, #936939)"/>
<path id="Vector_10" d="M39.9937 82.829C39.1441 83.2878 38.9572 84.3413 39.6283 84.9615C40.291 85.5817 41.0982 85.5307 41.6249 84.8425C42.0667 84.2563 41.9818 83.6276 41.37 83.0499C41.0047 82.7015 40.41 82.6081 39.9937 82.829Z" fill="var(--fill-0, #936939)"/>
<path id="Vector_11" d="M13.6306 89.4375C13.3673 89.5903 13.0955 89.7517 13.0361 89.8027C12.9682 89.8536 12.6879 90.0235 12.4076 90.1849C11.9575 90.4311 11.5923 90.669 10.6071 91.3144C10.4542 91.4078 10.3268 91.5267 10.3268 91.5777C10.3353 91.6202 10.5392 91.9854 10.794 92.3845C11.0487 92.7837 11.3375 93.2508 11.4309 93.4207C11.5243 93.599 11.6348 93.7434 11.6687 93.7434C11.7197 93.7434 12.0084 93.5735 12.1868 93.4377C12.2038 93.4207 12.0169 93.081 11.7706 92.6818C11.4054 92.0703 11.3545 91.9259 11.4394 91.824C11.5498 91.6881 12.3057 91.2804 12.4416 91.2804C12.4841 91.2804 12.6879 91.5692 12.8832 91.9089C13.2654 92.5799 13.2654 92.5799 13.6731 92.2741C13.8344 92.1552 13.8259 92.1297 13.4268 91.4928L13.0191 90.8303L13.2229 90.6774C13.3333 90.5925 13.4607 90.5161 13.4947 90.5161C13.5372 90.5161 13.6646 90.4396 13.7835 90.3462C13.9024 90.2528 14.0298 90.1764 14.0553 90.1764C14.1147 90.1764 14.7177 91.0681 14.9046 91.4333C15.015 91.6371 15.2613 91.6287 15.4906 91.4078C15.6095 91.3059 15.5245 91.1106 15.0404 90.3802C14.947 90.2358 14.7347 89.9046 14.5733 89.6413C14.412 89.378 14.2421 89.1657 14.1911 89.1657C14.1487 89.1657 13.8939 89.2931 13.6306 89.4375Z" fill="var(--fill-0, #936939)"/>
<path id="Vector_12" d="M66.8312 89.6583C66.6104 89.7517 66.3556 89.9895 66.1093 90.3122C65.7866 90.7369 65.7271 90.8813 65.7101 91.2804C65.6676 91.9259 65.9224 92.359 66.466 92.5883C66.8312 92.7412 66.8991 92.7412 67.2304 92.6308C67.4342 92.5714 67.8588 92.2911 68.1816 92.0193C68.8525 91.4588 69.0818 91.3738 69.3791 91.5692C69.5574 91.6881 69.5914 91.7815 69.5914 92.0957C69.5914 92.6053 69.3196 92.8941 68.8355 92.8941C68.5468 92.8941 68.4788 92.9281 68.326 93.1998C68.0287 93.6924 68.1136 93.8283 68.6996 93.8283C69.4895 93.8283 70.4407 92.7497 70.4407 91.8495C70.4407 91.204 69.8292 90.5925 69.1837 90.584C68.7931 90.584 68.8185 90.567 67.9438 91.2295C67.4172 91.6371 67.2219 91.739 66.9841 91.7306C66.1772 91.7051 66.3386 90.5245 67.1624 90.4736C67.4342 90.4566 67.5106 90.4056 67.723 90.0659L67.9692 89.6752L67.706 89.5903C67.3493 89.4629 67.2304 89.4714 66.8312 89.6583Z" fill="var(--fill-0, #936939)"/>
<path id="Vector_13" d="M15.1509 92.7837C14.7942 93.3782 14.4205 94.0237 14.3185 94.2105C14.2166 94.3974 14.0638 94.6437 13.9788 94.7626C13.9024 94.8815 13.7155 95.1957 13.5627 95.459L13.2909 95.9516L13.5627 96.3762C13.7155 96.6055 13.8854 96.8009 13.9534 96.8009C14.0128 96.8009 14.6498 96.597 15.3547 96.3423C16.0681 96.0875 17.0958 95.7393 17.6308 95.5609C18.1659 95.3826 18.616 95.2297 18.633 95.2212C18.65 95.2127 18.582 95.1108 18.4886 95.0004C18.3952 94.8985 18.2678 94.7371 18.2083 94.6522C18.1064 94.5163 18.0724 94.5163 17.6308 94.6776C17.0448 94.8985 15.635 95.3995 14.9385 95.6373C14.6413 95.7308 14.3865 95.7902 14.3525 95.7647C14.327 95.7308 14.4205 95.5354 14.5648 95.3231C14.7092 95.1193 14.8281 94.9239 14.8281 94.9069C14.8281 94.89 15.015 94.5927 15.2443 94.2445C15.601 93.6925 15.8218 93.3188 16.1445 92.7158C16.187 92.6223 16.2549 92.5544 16.2889 92.5544C16.4333 92.5544 16.3399 92.3251 16.0766 92.0193L15.8048 91.6881L15.1509 92.7837Z" fill="var(--fill-0, #936939)"/>
<path id="Vector_14" d="M64.7504 92.962C64.4192 93.013 64.1389 93.2593 63.3915 94.1256C62.797 94.8135 62.7121 94.9579 62.8055 95.0683C62.865 95.1362 63.3321 95.5439 63.8502 95.977C64.3682 96.4017 64.8099 96.7754 64.8353 96.8009C64.8608 96.8263 65.0137 96.9452 65.1751 97.0726C65.3364 97.2 65.6422 97.4548 65.846 97.6417L66.2282 97.9814L66.5085 97.6671C66.7802 97.3529 66.8482 97.2255 66.7293 97.2255C66.6868 97.2255 66.5594 97.1406 66.432 97.0302C66.3131 96.9283 66.0329 96.6989 65.8205 96.5206C65.3874 96.1639 65.3619 96.1044 65.5827 95.8836C65.7356 95.7307 65.7696 95.7307 66.7887 95.9006L67.8334 96.0705L67.9947 95.8581C68.0797 95.7477 68.2155 95.5864 68.2835 95.5014C68.3599 95.408 68.4024 95.3316 68.3854 95.3146C68.3684 95.3061 67.9098 95.2297 67.3663 95.1447L66.3726 95.0003L66.3811 94.4568C66.3896 94.0067 66.3556 93.8623 66.1687 93.5905C65.829 93.1064 65.3025 92.8686 64.7504 92.962ZM65.4044 93.9642C65.6337 94.1086 65.7356 94.5842 65.5997 94.8475C65.5488 94.9494 65.3619 95.1787 65.2005 95.3655L64.9033 95.6968L64.589 95.442C63.7058 94.7286 63.7652 94.805 63.9181 94.5842C64.1134 94.2869 64.5126 93.9048 64.7079 93.8283C64.9033 93.7434 65.1326 93.7943 65.4044 93.9642Z" fill="var(--fill-0, #936939)"/>
<path id="Vector_15" d="M18.8114 95.6968C18.7349 95.7902 18.1999 96.3762 17.6139 96.9962C16.204 98.4825 15.8473 98.8731 15.8643 98.9241C15.8643 98.9496 16.2805 99.3657 16.7816 99.8413L17.6988 100.725L17.9196 100.529C18.0385 100.427 18.1404 100.308 18.1404 100.266C18.1404 100.224 17.8772 99.9432 17.5459 99.629C16.9939 99.1024 16.9599 99.0515 17.0703 98.8901C17.2572 98.6099 17.7667 98.0748 17.8432 98.0748C17.8856 98.0748 18.1659 98.3126 18.4632 98.6014L18.9982 99.1364L19.2105 98.8816L19.4144 98.6268L18.9048 98.1427C18.6245 97.871 18.3952 97.6077 18.3952 97.5567C18.3952 97.3954 19.0067 96.7159 19.1596 96.7159C19.236 96.7159 19.5588 96.9707 19.8815 97.2765L20.4505 97.8285L20.7053 97.5907L20.9516 97.3529L19.9919 96.4441C19.4653 95.9431 19.0152 95.5354 18.9897 95.5354C18.9643 95.5269 18.8878 95.6033 18.8114 95.6968Z" fill="var(--fill-0, #936939)"/>
<path id="Vector_16" d="M61.1749 96.4357L60.2152 97.3784L61.4382 98.6863C62.1176 99.4082 62.831 100.173 63.0264 100.385L63.3831 100.776L64.3173 99.8838C64.8354 99.3827 65.2345 98.9411 65.2006 98.8901C65.1072 98.7288 64.8948 98.4994 64.8354 98.4994C64.8014 98.4994 64.5891 98.6778 64.3598 98.8986C64.1305 99.1279 63.8587 99.3827 63.7483 99.4676L63.5529 99.6375L63.1368 99.2214C62.899 98.992 62.7121 98.7542 62.7121 98.7033C62.7121 98.6523 62.9499 98.3721 63.2302 98.1003L63.7568 97.5907L63.6039 97.3699C63.5275 97.2425 63.4171 97.1406 63.3576 97.1406C63.3066 97.1406 63.0349 97.3699 62.7631 97.6502C62.4828 97.9304 62.228 98.1597 62.2026 98.1597C62.1091 98.1597 61.3533 97.3699 61.3533 97.268C61.3533 97.2085 61.625 96.9198 61.9478 96.631C62.279 96.3422 62.5423 96.0789 62.5423 96.045C62.5338 96.0195 62.4489 95.8836 62.33 95.7477L62.1346 95.5014L61.1749 96.4357Z" fill="var(--fill-0, #936939)"/>
<path id="Vector_17" d="M59.3574 98.0578C58.5591 98.6014 57.1068 99.7309 57.1068 99.8159C57.1068 99.8583 57.1832 99.9942 57.2682 100.105L57.4295 100.317L57.8881 99.9602C58.1429 99.7649 58.3892 99.6035 58.4317 99.6035C58.4742 99.612 58.7714 99.9772 59.0941 100.436C60.0199 101.727 60.7757 102.746 60.8097 102.746C60.9116 102.746 61.4382 102.355 61.4382 102.279C61.4382 102.228 61.056 101.676 60.5804 101.047C60.1133 100.419 59.6717 99.8074 59.5952 99.6885C59.5188 99.5696 59.3744 99.3912 59.281 99.2808L59.1196 99.094L59.315 98.8816C59.4254 98.7627 59.5613 98.6693 59.6122 98.6693C59.6632 98.6693 59.7991 98.5759 59.9095 98.457C60.0963 98.2616 60.0963 98.2447 59.9604 98.0323C59.7906 97.7691 59.7736 97.7691 59.3574 98.0578Z" fill="var(--fill-0, #936939)"/>
<path id="Vector_18" d="M21.3677 97.9814C21.3677 98.0408 20.3655 99.4337 19.5927 100.453C19.1935 100.962 18.8198 101.54 18.8198 101.625C18.8198 101.744 19.3973 102.092 19.4908 102.033C19.5332 102.007 19.7031 101.778 19.8729 101.54C20.4505 100.682 20.4759 100.657 20.7222 100.776C20.977 100.894 20.977 100.835 20.8157 102.024L20.6883 102.958L21.0365 103.273C21.2318 103.451 21.4187 103.595 21.4441 103.595C21.4781 103.595 21.5461 103.171 21.597 102.661C21.6565 102.143 21.7244 101.684 21.7499 101.642C21.7754 101.591 21.9962 101.557 22.2255 101.557C22.7606 101.557 23.0833 101.387 23.406 100.945C23.5929 100.682 23.6608 100.504 23.6608 100.224C23.6608 99.663 23.4825 99.3403 22.9304 98.9241C22.6586 98.7118 22.4123 98.5249 22.3869 98.4995C22.3614 98.474 22.1745 98.3296 21.9707 98.1767C21.597 97.905 21.3677 97.837 21.3677 97.9814ZM22.4718 99.4167C22.9814 99.9093 23.0238 100.173 22.6501 100.546C22.3189 100.869 21.9792 100.869 21.5036 100.546C20.8751 100.113 20.8751 100.096 21.3337 99.5271C21.563 99.2468 21.8178 99.0175 21.9028 99.0175C21.9792 99.009 22.2425 99.1959 22.4718 99.4167Z" fill="var(--fill-0, #936939)"/>
<path id="Vector_19" d="M55.3657 100.733C54.6183 101.166 53.9644 101.548 53.9049 101.582C53.8285 101.633 53.837 101.718 53.9389 101.939L54.0833 102.236L54.6268 101.931L55.1789 101.616L55.3317 101.82C55.4167 101.931 55.4931 102.05 55.4931 102.092C55.4931 102.126 55.7054 102.508 55.9602 102.933C56.215 103.357 56.4273 103.714 56.4273 103.731C56.4273 103.748 56.5802 104.011 56.7671 104.317C56.9539 104.623 57.1068 104.912 57.1068 104.954C57.1068 105.073 57.1577 105.065 57.5739 104.844C57.9136 104.657 57.9391 104.623 57.8372 104.479C57.7777 104.394 57.5654 104.011 57.3616 103.638C57.1662 103.264 56.9709 102.916 56.9369 102.873C56.9029 102.822 56.7755 102.619 56.6566 102.406C56.5462 102.194 56.3424 101.846 56.215 101.625C56.0961 101.404 56.0112 101.183 56.0367 101.141C56.0621 101.098 56.249 100.988 56.4443 100.894C57.0473 100.597 57.0388 100.606 56.8944 100.257C56.8265 100.088 56.7586 99.9433 56.7416 99.9433C56.7331 99.9433 56.1131 100.3 55.3657 100.733Z" fill="var(--fill-0, #936939)"/>
<path id="Vector_20" d="M24.5102 101.829C24.5017 103.519 24.5017 103.544 24.2724 103.969C24.1535 104.207 23.9752 104.504 23.8817 104.64C23.6949 104.903 23.7204 104.963 24.196 105.2L24.5102 105.362L24.9094 104.623C25.3001 103.893 25.317 103.876 26.2003 103.289C27.746 102.279 28.0943 102.016 27.9753 101.922C27.7291 101.727 27.3044 101.557 27.2025 101.608C27.143 101.65 26.7269 101.956 26.2683 102.296C25.8096 102.636 25.402 102.899 25.3595 102.873C25.317 102.848 25.3001 102.72 25.317 102.593C25.334 102.466 25.368 101.956 25.3935 101.455L25.4444 100.555L25.0708 100.334C24.8584 100.215 24.6546 100.113 24.6036 100.113C24.5527 100.113 24.5187 100.75 24.5102 101.829Z" fill="var(--fill-0, #936939)"/>
<path id="Vector_21" d="M51.5524 102.576C51.3316 102.644 51.1192 102.763 51.0853 102.831C51.0343 102.941 51.1447 107.672 51.2042 107.74C51.2127 107.748 51.3995 107.68 51.6203 107.587C52.011 107.426 52.0195 107.409 51.96 107.12C51.8666 106.593 51.96 106.44 52.4951 106.254C52.7669 106.152 53.1745 106.007 53.4038 105.922L53.8115 105.761L54.0918 106.075C54.3975 106.432 54.491 106.457 54.9326 106.271C55.1874 106.16 55.2213 106.118 55.1364 106.024C55.077 105.965 54.8137 105.676 54.5589 105.37C54.3041 105.073 53.9559 104.674 53.7945 104.487C53.6247 104.3 53.3784 104.011 53.251 103.85C53.1151 103.689 52.7754 103.298 52.4866 102.992L51.96 102.44L51.5524 102.576ZM52.2148 103.867C52.3422 104.02 52.4696 104.181 52.5036 104.232C52.5376 104.275 52.7244 104.504 52.9282 104.733C53.1236 104.963 53.2595 105.183 53.2255 105.217C53.0726 105.362 52.011 105.702 51.96 105.625C51.8666 105.472 51.8242 103.595 51.9091 103.595C51.96 103.595 52.0959 103.723 52.2148 103.867Z" fill="var(--fill-0, #936939)"/>
<path id="Vector_22" d="M29.3602 103.587C29.2159 104.037 28.9016 105.005 28.6638 105.735C28.426 106.474 28.2307 107.103 28.2307 107.145C28.2307 107.205 28.7402 107.383 30.218 107.85C30.8635 108.054 31.5344 107.833 31.8147 107.324C32.0355 106.941 31.9846 106.305 31.7128 106.016C31.492 105.778 31.5344 105.676 31.8742 105.608C32.2309 105.532 32.5026 105.107 32.5111 104.623C32.5196 104.147 32.3413 103.842 31.8911 103.561C31.5854 103.366 31.3391 103.273 30.1331 102.916L29.615 102.763L29.3602 103.587ZM30.8805 103.876C31.1438 103.986 31.424 104.122 31.492 104.181C31.7468 104.394 31.5939 105.073 31.2627 105.175C31.0673 105.234 30.1586 105.056 29.9717 104.92C29.8613 104.835 29.8698 104.759 30.0227 104.249C30.1246 103.935 30.2435 103.68 30.303 103.68C30.3539 103.68 30.6172 103.774 30.8805 103.876ZM30.3454 105.769C31.0418 106.033 31.1523 106.135 31.1353 106.542C31.1183 106.924 30.9144 107.162 30.5832 107.162C30.201 107.162 29.3263 106.899 29.2753 106.772C29.2074 106.585 29.581 105.549 29.7254 105.549C29.7339 105.549 30.0142 105.651 30.3454 105.769Z" fill="var(--fill-0, #936939)"/>
<path id="Vector_23" d="M48.2995 103.689C48.1127 103.74 48.0108 103.833 47.9853 103.96C47.6541 105.515 47.3398 107.077 47.3228 107.239C47.3059 107.358 47.2549 107.46 47.1954 107.477C47.1445 107.494 46.6689 106.865 46.1508 106.084C45.6242 105.302 45.1401 104.589 45.0552 104.512C44.9363 104.385 44.8684 104.377 44.5371 104.462C44.3248 104.512 44.1295 104.58 44.104 104.606C44.0445 104.657 44.138 105.285 44.3928 106.568C44.69 108.088 44.9108 109.158 44.9193 109.184C44.9278 109.192 45.1317 109.158 45.3779 109.099C45.7092 109.022 45.8026 108.971 45.7771 108.869C45.7007 108.598 45.31 106.772 45.2506 106.415C45.2166 106.22 45.2251 106.058 45.2675 106.058C45.31 106.058 45.7092 106.619 46.1508 107.298C46.5924 107.969 47.0001 108.581 47.0426 108.649C47.153 108.818 47.739 108.666 47.7984 108.453C47.8239 108.377 47.9428 107.731 48.0617 107.035C48.325 105.464 48.342 105.379 48.4439 105.379C48.4864 105.379 48.5458 105.523 48.5798 105.693C48.7836 106.891 49.0639 108.232 49.1064 108.275C49.1403 108.3 49.3272 108.292 49.531 108.249C49.7688 108.198 49.8877 108.131 49.8877 108.037C49.8877 107.859 49.2507 104.827 49.0639 104.122C48.9195 103.553 48.8686 103.527 48.2995 103.689Z" fill="var(--fill-0, #936939)"/>
<path id="Vector_24" d="M33.5812 104.164C33.5812 104.3 33.4708 104.818 32.9358 107.307C32.664 108.598 32.6555 108.572 33.0886 108.632C33.2925 108.657 33.4623 108.666 33.4793 108.649C33.4963 108.632 33.6237 108.114 33.7596 107.485C33.8955 106.865 34.0823 106.007 34.1757 105.591C34.2692 105.166 34.3711 104.674 34.3966 104.479C34.4475 104.139 34.439 104.13 34.1757 104.071C33.7341 103.986 33.5812 104.011 33.5812 104.164Z" fill="var(--fill-0, #936939)"/>
<path id="Vector_25" d="M35.1014 104.419C35.1014 104.504 35.0844 104.657 35.0675 104.75C35.0335 104.895 35.0844 104.946 35.2883 104.988C35.4411 105.014 35.6789 105.039 35.8233 105.039C36.3244 105.039 36.3244 105.022 36.0866 106.916C35.9677 107.867 35.8573 108.751 35.8318 108.878C35.7979 109.09 35.8148 109.099 36.214 109.133C36.4518 109.141 36.6387 109.141 36.6471 109.116C36.6471 109.09 36.6641 108.98 36.6811 108.861C36.6981 108.742 36.7915 107.978 36.8934 107.162C37.1482 105.039 37.0378 105.26 37.7937 105.319L38.4222 105.362V104.988C38.4222 104.657 38.3967 104.614 38.2353 104.614C38.1249 104.614 37.4115 104.538 36.6387 104.445C35.8658 104.351 35.2118 104.275 35.1779 104.275C35.1354 104.275 35.1099 104.343 35.1014 104.419Z" fill="var(--fill-0, #936939)"/>
<path id="Vector_26" d="M40.1888 104.682L39.1017 104.708V107.035V109.37H40.4181H41.7345V109.031V108.7L40.8682 108.674L39.9934 108.649V108.012V107.375L40.7833 107.349L41.5646 107.324V106.992V106.653H40.8003H40.0359L40.0274 106.415C40.0104 105.982 40.0104 105.676 40.0274 105.523C40.0359 105.396 40.1378 105.379 40.9277 105.379H41.8194V105.014C41.8194 104.606 42.0063 104.64 40.1888 104.682Z" fill="var(--fill-0, #936939)"/>
<path id="Vector_27" d="M0.458633 82.5157C0.458633 82.9828 1.32492 86.4564 1.74957 87.6709C2.29312 89.2336 2.41202 89.5818 2.57338 90.0065C2.6753 90.2613 2.81119 90.584 2.87064 90.7284C2.93858 90.8643 3.07447 91.17 3.17639 91.4078C4.17856 93.7094 5.6988 96.4102 6.92179 98.0833C8.39957 100.088 8.69682 100.461 9.83488 101.718C10.4803 102.432 12.1195 104.122 12.6545 104.614C13.6652 105.54 15.8054 107.281 16.5953 107.799C16.8076 107.935 17.0879 108.139 17.2153 108.241C17.5125 108.479 19.8566 109.931 20.5955 110.33C25.1137 112.776 29.3857 114.228 34.2182 114.967C36.4773 115.316 38.1844 115.434 40.9277 115.434C43.3142 115.434 43.7219 115.409 45.2591 115.205C47.6796 114.882 49.3017 114.56 51.459 113.982C52.6225 113.676 54.4825 113.082 55.1959 112.785C55.4337 112.691 55.8498 112.53 56.1301 112.419C57.438 111.927 59.901 110.712 61.676 109.676C62.882 108.971 63.553 108.53 65.3365 107.247C65.8461 106.882 66.568 106.296 67.6805 105.353C68.4194 104.725 71.2731 101.854 71.7657 101.251C71.995 100.962 72.4706 100.368 72.8273 99.9348C74.6618 97.6586 77.0313 93.7264 77.8976 91.4927C77.991 91.2549 78.1609 90.8558 78.2883 90.601C78.5855 89.9555 79.5282 87.4161 79.5282 87.2463C79.5282 87.1698 79.5622 87.0424 79.6047 86.9575C79.7406 86.7027 80.5814 83.2291 80.6493 82.6601L80.6748 82.4053L80.1822 82.3968C79.8595 82.3883 79.6471 82.4222 79.5707 82.4987C79.5113 82.5666 79.3924 82.9148 79.3159 83.28C78.9932 84.7748 78.3732 86.983 78.0844 87.6709C78.0505 87.7643 77.974 87.9767 77.9146 88.138C77.8551 88.2994 77.7787 88.5117 77.7447 88.6051C77.7107 88.6986 77.6343 88.9109 77.5749 89.0722C77.5154 89.2336 77.3795 89.5648 77.2691 89.8026C77.1587 90.0404 77.0653 90.2613 77.0653 90.2867C77.0653 90.3122 76.9294 90.635 76.7595 91.0002C75.3072 94.168 73.7106 96.7839 71.7487 99.2214C69.8208 101.616 67.1115 104.266 64.6655 106.16C63.8247 106.806 61.625 108.283 60.8862 108.691C58.1599 110.194 55.646 111.298 52.8858 112.182C51.3655 112.666 49.3017 113.209 48.2316 113.405C44.4607 114.093 43.501 114.169 39.951 114.101C37.2162 114.05 35.4667 113.88 32.9018 113.413C30.5832 112.997 27.271 111.986 24.9184 110.984C23.7294 110.483 21.2664 109.252 20.5785 108.818C20.4001 108.7 20.2218 108.606 20.1963 108.606C20.1623 108.606 19.5254 108.198 18.778 107.689C18.0391 107.188 17.3681 106.738 17.2917 106.695C17.0539 106.542 15.3723 105.285 15.109 105.048C14.9646 104.929 14.5825 104.597 14.2597 104.326C13.3085 103.51 11.2957 101.506 10.4634 100.538C10.0387 100.045 9.60557 99.5441 9.49516 99.4167C9.10448 98.9581 8.02587 97.4973 7.44835 96.631C5.41004 93.5565 4.03418 90.6774 2.73475 86.7367C2.54791 86.1592 1.98737 84.0019 1.77504 83.0168L1.63916 82.3628H1.04465C0.53507 82.3628 0.458633 82.3798 0.458633 82.5157Z" fill="var(--fill-0, #936939)"/>
</g>
</svg>
