<svg preserveAspectRatio="none" width="100%" height="100%" overflow="visible" style="display: block;" viewBox="0 0 156 24" fill="none" xmlns="http://www.w3.org/2000/svg">
<g id="Group 1000004089">
<path id="Star 6" d="M12 0L14.6942 8.2918H23.4127L16.3593 13.4164L19.0534 21.7082L12 16.5836L4.94658 21.7082L7.64074 13.4164L0.587322 8.2918H9.30583L12 0Z" fill="var(--fill-0, #936939)"/>
<path id="Star 7" d="M45 0L47.6942 8.2918H56.4127L49.3593 13.4164L52.0534 21.7082L45 16.5836L37.9466 21.7082L40.6407 13.4164L33.5873 8.2918H42.3058L45 0Z" fill="var(--fill-0, #936939)"/>
<path id="Star 8" d="M78 0L80.6942 8.2918H89.4127L82.3593 13.4164L85.0534 21.7082L78 16.5836L70.9466 21.7082L73.6407 13.4164L66.5873 8.2918H75.3058L78 0Z" fill="var(--fill-0, #936939)"/>
<path id="Star 9" d="M111 0L113.694 8.2918H122.413L115.359 13.4164L118.053 21.7082L111 16.5836L103.947 21.7082L106.641 13.4164L99.5873 8.2918H108.306L111 0Z" fill="var(--fill-0, #936939)"/>
<path id="Star 10" d="M146.219 8.44629L146.331 8.79199H153.874L148.065 13.0117L147.771 13.2256L147.884 13.5713L150.103 20.3984L144.294 16.1787L144 15.9658L143.706 16.1787L137.896 20.3984L140.116 13.5713L140.229 13.2256L139.935 13.0117L134.126 8.79199H141.669L141.781 8.44629L144 1.61719L146.219 8.44629Z" stroke="var(--stroke-0, #936939)"/>
</g>
</svg>
