<svg preserveAspectRatio="none" width="100%" height="100%" overflow="visible" style="display: block;" viewBox="0 0 1668 451.633" fill="none" xmlns="http://www.w3.org/2000/svg">
<path id="Union" d="M1011.39 0C1053.37 0 1089.93 37.6157 1108.95 93.1914C1128.3 63.5039 1155.4 45.0508 1185.4 45.0508C1221 45.051 1252.52 71.0482 1271.84 110.972C1293.98 70.4534 1325.77 45.0508 1361.09 45.0508C1402.45 45.0509 1438.96 79.868 1460.8 132.997C1480.29 80.3128 1515.85 45.0508 1556.5 45.0508C1618.08 45.0511 1668 125.982 1668 225.816C1668 325.65 1618.08 406.582 1556.5 406.582C1521.32 406.582 1489.95 380.172 1469.51 338.915C1449.68 405.732 1408.58 451.633 1361.09 451.633C1311.32 451.633 1268.56 401.199 1249.95 329.106C1232.05 349.447 1209.67 361.531 1185.4 361.531C1149.35 361.531 1117.49 334.891 1098.24 294.133C1077.8 335.236 1046.49 361.531 1011.39 361.531C976.209 361.531 944.837 335.121 924.401 293.863C904.565 360.681 863.465 406.582 815.979 406.582C766.205 406.582 723.447 356.149 704.839 284.057C686.933 304.397 664.557 316.48 640.282 316.48C618.643 316.48 598.513 306.879 581.712 290.385C565.679 358.331 525.085 406.582 477.537 406.582C442.36 406.582 410.987 380.172 390.552 338.915C370.715 405.732 329.615 451.633 282.13 451.633C232.355 451.633 189.597 401.199 170.989 329.106C153.083 349.447 130.707 361.531 106.433 361.531C47.6518 361.531 4.16107e-06 290.685 0 203.291C0 115.897 47.6518 45.0508 106.433 45.0508C142.039 45.051 173.561 71.0482 192.882 110.972C215.015 70.4534 246.805 45.0508 282.13 45.0508C323.487 45.0509 359.999 79.868 381.84 132.997C401.324 80.3128 436.89 45.0508 477.537 45.0508C503.527 45.0509 527.44 59.4669 546.399 83.6357C564.331 33.8589 599.646 8.47706e-06 640.282 0C675.889 0 707.41 25.9974 726.731 65.9209C748.864 25.4026 780.654 0.000113412 815.979 0C857.336 0 893.849 34.8176 915.69 87.9473C935.174 35.2628 970.739 0.00012358 1011.39 0Z" fill="var(--fill-0, #E1EAB4)"/>
</svg>
