<svg preserveAspectRatio="none" width="100%" height="100%" overflow="visible" style="display: block;" viewBox="0 0 1668.5 398" fill="none" xmlns="http://www.w3.org/2000/svg">
<path id="Vector 14" d="M61.6181 392.686C8.90947 357.214 66.3611 277.217 35.2638 229.317C0 175 0 136.5 0 0H1668.5V200.338C1663.23 209.131 1656.06 210.996 1653.13 210.829C1648.37 208.165 1638.71 196.441 1638.12 170.862C1637.53 145.282 1630.31 133.226 1626.77 130.394C1618.6 125.732 1601.74 124.999 1599.69 159.371C1597.12 202.336 1590.9 206.833 1587.97 210.829C1585.04 214.826 1567.84 223.319 1569.31 200.338C1570.48 181.953 1563.69 173.027 1560.15 170.862C1554.3 166.199 1539.95 161.569 1529.41 180.354C1516.23 203.835 1526.11 247.3 1529.41 258.291C1532.7 269.282 1535.63 311.748 1522.82 323.238C1510.01 334.729 1497.93 332.231 1491.71 311.748C1485.48 291.264 1505.62 257.791 1485.48 201.837C1469.38 157.073 1445.59 173.193 1435.7 186.849C1428.75 200.671 1411.11 228.315 1396.17 228.315C1377.5 228.315 1383.51 218.839 1374.58 216.825C1364.54 214.56 1369.45 224.318 1348.59 219.323C1331.9 215.326 1314.79 196.008 1308.32 186.849C1299.66 175.192 1278.16 156.373 1261.47 174.359C1240.61 196.841 1240.97 222.32 1239.88 245.801C1238.78 269.282 1254.15 318.742 1239.88 345.221C1225.6 371.699 1206.93 362.706 1198.88 345.221C1190.83 327.735 1190.83 297.259 1200.71 266.285C1210.59 235.31 1212.06 202.336 1205.84 177.856C1199.61 153.376 1177.28 146.382 1166.3 151.377C1155.32 156.373 1152.39 169.363 1149.47 182.852C1146.54 196.341 1148 201.837 1151.66 241.804C1155.32 281.772 1133.36 302.255 1122.01 290.265C1110.67 278.275 1111.03 270.781 1109.57 253.295C1108.1 235.809 1122.01 204.335 1123.48 185.85C1124.94 167.365 1113.96 137.389 1098.95 142.385C1083.95 147.381 1082.12 161.869 1078.09 185.85C1074.06 209.83 1066.38 221.321 1056.86 220.322C1047.34 219.323 1045.88 211.329 1045.51 194.842C1045.22 181.653 1041.97 173.36 1040.39 170.862C1033.43 161.036 1014.84 146.282 996.099 165.866C977.358 185.45 977.797 230.98 980.359 251.297C987.68 300.923 991.78 393.082 949.613 364.705C896.904 329.234 950.69 251.963 923.258 201.337C897.27 153.376 867.605 158.375 856.275 201.337C846.392 238.81 836.143 238.976 833.214 238.81C828.456 236.145 818.793 224.421 818.207 198.842C817.622 173.263 810.399 161.206 806.86 158.375C798.685 153.712 781.824 152.979 779.774 187.351C777.212 230.317 770.989 234.813 768.061 238.81C765.133 242.806 747.929 251.3 749.393 228.318C750.564 209.933 743.781 201.007 740.242 198.842C734.386 194.179 720.037 189.549 709.495 208.334C696.318 231.815 706.201 275.28 709.495 286.271C712.79 297.262 715.718 339.728 702.907 351.219C690.096 362.709 678.017 360.211 671.794 339.728C665.572 319.245 685.703 285.772 665.572 229.817C649.466 185.053 625.674 201.173 615.791 214.829C608.837 228.651 591.194 256.296 576.26 256.296C557.592 256.296 545.513 218.826 523.551 211.831C501.589 204.837 481.457 252.299 460.593 247.303C443.902 243.306 426.796 223.988 420.33 214.829C411.667 203.172 390.169 184.354 373.478 202.339C352.614 224.821 352.98 250.3 351.882 273.781C350.784 297.262 366.157 346.723 351.882 373.201C337.607 399.68 318.939 390.687 310.886 373.201C302.833 355.715 302.833 325.24 312.716 294.265C322.599 263.29 324.063 230.317 317.841 205.836C311.618 181.356 289.29 174.362 278.309 179.358C267.328 184.354 264.4 197.343 261.472 210.832C258.544 224.321 260.008 229.817 263.668 269.785C267.328 309.752 245.366 330.236 234.019 318.245C222.672 306.255 223.038 298.761 221.574 281.275C220.11 263.789 234.019 232.315 235.483 213.83C236.948 195.345 225.967 165.369 210.959 170.365C195.952 175.361 194.122 189.849 190.095 213.83C186.069 237.811 178.382 249.301 168.866 248.302C159.349 247.303 157.885 239.309 157.519 222.823C157.226 209.633 153.98 201.34 152.394 198.842C145.44 189.017 126.845 174.262 108.104 193.846C89.3634 213.43 89.8026 258.96 92.3649 279.277C99.6855 328.903 103.785 421.063 61.6181 392.686Z" fill="var(--fill-0, #E1EAB4)"/>
</svg>
