<svg preserveAspectRatio="none" width="100%" height="100%" overflow="visible" style="display: block;" viewBox="0 0 2322.5 398.322" fill="none" xmlns="http://www.w3.org/2000/svg">
<path id="Vector 13" d="M0 229.503C0.106426 229.403 0.213788 229.302 0.322077 229.201C9.0517 219.647 3.77905 109.677 0 0H2322.5V200.5C2315.3 209.3 2305.5 211.167 2301.5 211C2295 208.333 2281.8 196.6 2281 171C2280.2 145.4 2270.33 133.333 2265.5 130.5C2254.33 125.833 2231.3 125.1 2228.5 159.5C2225 202.5 2216.5 207 2212.5 211C2208.5 215 2185 223.5 2187 200.5C2188.6 182.1 2179.33 173.167 2174.5 171C2166.5 166.333 2146.9 161.7 2132.5 180.5C2114.5 204 2128 247.5 2132.5 258.5C2137 269.5 2141 312 2123.5 323.5C2106 335 2089.5 332.5 2081 312C2072.5 291.5 2100 258 2072.5 202C2050.5 157.2 2018 173.333 2004.5 187C1995 200.833 1970.9 228.5 1950.5 228.5C1925 228.5 1933.2 219.017 1921 217C1907.29 214.733 1914 224.5 1885.5 219.5C1862.7 215.5 1839.33 196.167 1830.5 187C1818.67 175.333 1789.3 156.5 1766.5 174.5C1738 197 1738.5 222.5 1737 246C1735.5 269.5 1756.5 319 1737 345.5C1717.5 372 1692 363 1681 345.5C1670 328 1670 297.5 1683.5 266.5C1697 235.5 1699 202.5 1690.5 178C1682 153.5 1651.5 146.5 1636.5 151.5C1621.5 156.5 1617.5 169.5 1613.5 183C1609.5 196.5 1611.5 202 1616.5 242C1621.5 282 1591.5 302.5 1576 290.5C1560.5 278.5 1561 271 1559 253.5C1557 236 1576 204.5 1578 186C1580 167.5 1565 137.5 1544.5 142.5C1524 147.5 1521.5 162 1516 186C1510.5 210 1500 221.5 1487 220.5C1474 219.5 1472 211.5 1471.5 195C1471.1 181.8 1466.67 173.5 1464.5 171C1455 161.167 1429.6 146.4 1404 166C1378.4 185.6 1379 231.167 1382.5 251.5C1392.5 301.167 1398.1 393.4 1340.5 365C1268.5 329.5 1341.97 252.166 1304.5 201.5C1269 153.5 1228.48 158.503 1213 201.5C1199.5 239.003 1185.5 239.17 1181.5 239.003C1175 236.336 1161.8 224.603 1161 199.003C1160.2 173.403 1150.33 161.336 1145.5 158.503C1134.33 153.836 1111.3 153.103 1108.5 187.503C1105 230.503 1096.5 235.003 1092.5 239.003C1088.5 243.003 1065 251.503 1067 228.503C1068.6 210.103 1059.33 201.17 1054.5 199.003C1046.5 194.336 1026.9 189.703 1012.5 208.503C994.5 232.003 1008 275.503 1012.5 286.503C1017 297.503 1021 340.003 1003.5 351.503C986 363.003 969.5 360.503 961 340.003C952.5 319.503 980 286.003 952.5 230.003C930.5 185.203 898 201.336 884.5 215.003C875 228.836 850.9 256.503 830.5 256.503C805 256.503 788.5 219.003 758.5 212.003C728.5 205.003 701 252.503 672.5 247.503C649.7 243.503 626.333 224.17 617.5 215.003C605.667 203.336 576.3 184.503 553.5 202.503C525 225.003 525.5 250.503 524 274.003C522.5 297.503 543.5 347.003 524 373.503C504.5 400.003 479 391.003 468 373.503C457 356.003 457 325.503 470.5 294.503C484 263.503 486 230.503 477.5 206.003C469 181.503 438.5 174.503 423.5 179.503C408.5 184.503 404.5 197.503 400.5 211.003C396.5 224.503 398.5 230.003 403.5 270.003C408.5 310.003 378.5 330.503 363 318.503C347.5 306.503 348 299.003 346 281.503C344 264.003 363 232.503 365 214.003C367 195.503 352 165.503 331.5 170.503C311 175.503 308.5 190.003 303 214.003C297.5 238.003 287 249.503 274 248.503C261 247.503 259 239.503 258.5 223.003C258.1 209.803 253.667 201.503 251.5 199.003C242 189.17 216.6 174.403 191 194.003C165.4 213.603 166 259.17 169.5 279.503C179.5 329.17 185.1 421.403 127.5 393.003C55.5 357.503 130.5 279.003 91.5 229.503C60.4897 190.144 18.0201 212.724 0.322077 229.201C0.216765 229.316 0.109415 229.417 0 229.503Z" fill="var(--fill-0, white)"/>
</svg>
